<?xml version="1.0" standalone="no"?>
<!DOCTYPE svg PUBLIC "-//W3C//DTD SVG 20010904//EN"
 "http://www.w3.org/TR/2001/REC-SVG-20010904/DTD/svg10.dtd">
<svg version="1.0" xmlns="http://www.w3.org/2000/svg"
 width="258.000000pt" height="258.000000pt" viewBox="0 0 258.000000 258.000000"
 preserveAspectRatio="xMidYMid meet">
<metadata>
Created by potrace 1.14, written by Peter Selinger 2001-2017
</metadata>
<g transform="translate(0.000000,258.000000) scale(0.100000,-0.100000)"
fill="#000000" stroke="none">
<path d="M1248 2520 c-7 -11 -18 -20 -25 -20 -7 0 -13 -4 -13 -8 0 -11 -141
-152 -152 -152 -4 0 -8 -6 -8 -13 0 -8 -10 -19 -22 -26 -13 -8 -43 -37 -68
-66 -25 -30 -51 -54 -57 -54 -7 -1 -13 -7 -13 -14 0 -8 -10 -19 -22 -26 -13
-8 -43 -37 -68 -66 -25 -30 -51 -54 -57 -54 -7 -1 -13 -7 -13 -14 0 -8 -10
-19 -22 -26 -13 -8 -43 -37 -68 -66 -25 -30 -51 -54 -57 -54 -7 -1 -13 -7 -13
-14 0 -8 -10 -19 -23 -26 -12 -8 -42 -37 -67 -66 -25 -30 -51 -54 -57 -54 -7
-1 -13 -5 -13 -9 0 -11 -141 -152 -152 -152 -4 0 -8 -4 -8 -8 0 -11 -141 -152
-152 -152 -4 0 -8 -6 -8 -12 0 -7 -16 -24 -35 -37 -23 -16 -34 -30 -32 -45 3
-33 1225 -1253 1259 -1257 22 -3 41 11 115 83 48 48 93 93 100 100 7 7 236
237 510 511 274 274 507 508 518 520 26 28 21 55 -16 89 -16 15 -29 29 -29 32
0 5 -79 86 -84 86 -5 0 -76 71 -76 76 0 2 -18 22 -40 44 -22 22 -42 40 -44 40
-2 0 -20 16 -40 36 -20 20 -36 38 -36 40 0 2 -18 22 -40 44 -22 22 -42 40 -44
40 -2 0 -20 16 -40 36 -20 20 -36 38 -36 40 0 2 -18 22 -40 44 -22 22 -42 40
-44 40 -2 0 -20 16 -40 36 -20 20 -36 38 -36 40 0 2 -18 22 -40 44 -22 22 -42
40 -44 40 -5 0 -76 71 -76 75 0 5 -80 85 -84 85 -5 0 -76 71 -76 75 0 7 -81
85 -89 85 -4 0 -14 11 -21 25 -7 13 -21 27 -32 31 -10 3 -18 10 -18 15 0 18
-53 59 -76 59 -13 0 -29 -9 -36 -20z"/>
</g>
</svg>
